<svg width="115" height="68" viewBox="0 0 115 68" fill="none" xmlns="http://www.w3.org/2000/svg">
<path d="M5.67614 58H1.43821V44.9091H5.81037C7.09304 44.9091 8.1946 45.1712 9.11506 45.6953C10.0355 46.2152 10.7408 46.9631 11.2308 47.9389C11.7251 48.9105 11.9723 50.076 11.9723 51.4354C11.9723 52.799 11.723 53.9709 11.2244 54.951C10.7301 55.9311 10.0142 56.6854 9.0767 57.2138C8.1392 57.7379 7.00568 58 5.67614 58ZM3.41335 56.2741H5.56747C6.56463 56.2741 7.39347 56.0866 8.05398 55.7116C8.71449 55.3324 9.20881 54.7848 9.53693 54.0689C9.86506 53.3487 10.0291 52.4709 10.0291 51.4354C10.0291 50.4084 9.86506 49.5369 9.53693 48.821C9.21307 48.1051 8.7294 47.5618 8.08594 47.1911C7.44247 46.8203 6.64347 46.6349 5.68892 46.6349H3.41335V56.2741ZM14.8839 58H12.7873L17.4982 44.9091H19.7802L24.4911 58H22.3945L18.6935 47.2869H18.5913L14.8839 58ZM15.2354 52.8736H22.0366V54.5355H15.2354V52.8736ZM33.416 48.348C33.3478 47.7429 33.0666 47.2741 32.5723 46.9418C32.0779 46.6051 31.4558 46.4368 30.7058 46.4368C30.1689 46.4368 29.7044 46.522 29.3123 46.6925C28.9203 46.8587 28.6156 47.0888 28.3983 47.3828C28.1852 47.6726 28.0787 48.0028 28.0787 48.3736C28.0787 48.6847 28.1511 48.9531 28.296 49.179C28.4451 49.4048 28.639 49.5945 28.8777 49.7479C29.1206 49.897 29.3805 50.0227 29.6575 50.125C29.9345 50.223 30.2008 50.304 30.4565 50.3679L31.7349 50.7003C32.1525 50.8026 32.5808 50.9411 33.0197 51.1158C33.4586 51.2905 33.8656 51.5206 34.2406 51.8061C34.6156 52.0916 34.9181 52.4453 35.1483 52.8672C35.3826 53.2891 35.4998 53.794 35.4998 54.3821C35.4998 55.1236 35.3081 55.782 34.9245 56.3572C34.5453 56.9325 33.9934 57.3864 33.269 57.7188C32.5488 58.0511 31.6774 58.2173 30.6547 58.2173C29.6745 58.2173 28.8265 58.0618 28.1106 57.7507C27.3947 57.4396 26.8343 56.9986 26.4295 56.4276C26.0247 55.8523 25.801 55.1705 25.7583 54.3821H27.7399C27.7782 54.8551 27.9316 55.2493 28.2001 55.5646C28.4728 55.8757 28.8201 56.108 29.242 56.2614C29.6681 56.4105 30.1348 56.4851 30.6419 56.4851C31.2001 56.4851 31.6966 56.3977 32.1312 56.223C32.5701 56.044 32.9153 55.7969 33.1667 55.4815C33.4181 55.1619 33.5439 54.7891 33.5439 54.3629C33.5439 53.9751 33.4331 53.6577 33.2115 53.4105C32.9941 53.1634 32.698 52.9588 32.323 52.7969C31.9522 52.6349 31.5325 52.4922 31.0637 52.3686L29.5169 51.9467C28.4686 51.6612 27.6376 51.2415 27.024 50.6875C26.4146 50.1335 26.1099 49.4006 26.1099 48.4886C26.1099 47.7344 26.3145 47.076 26.7235 46.5135C27.1326 45.951 27.6866 45.5142 28.3855 45.2031C29.0843 44.8878 29.8727 44.7301 30.7505 44.7301C31.6369 44.7301 32.4189 44.8857 33.0964 45.1967C33.7782 45.5078 34.3152 45.9361 34.7072 46.4815C35.0993 47.0227 35.3038 47.6449 35.3208 48.348H33.416ZM37.8601 58V44.9091H39.8352V50.598H46.3615V44.9091H48.343V58H46.3615V52.2919H39.8352V58H37.8601ZM51.2195 58V44.9091H56.0135C56.9425 44.9091 57.7116 45.0625 58.321 45.3693C58.9304 45.6719 59.3864 46.0831 59.6889 46.603C59.9915 47.1186 60.1428 47.7003 60.1428 48.348C60.1428 48.8935 60.0426 49.3537 59.8423 49.7287C59.642 50.0994 59.3736 50.3977 59.0369 50.6236C58.7045 50.8452 58.3381 51.0071 57.9375 51.1094V51.2372C58.3722 51.2585 58.7962 51.3991 59.2095 51.6591C59.6271 51.9148 59.9723 52.2791 60.245 52.7521C60.5178 53.2251 60.6541 53.8004 60.6541 54.478C60.6541 55.147 60.4964 55.7479 60.1811 56.2805C59.87 56.8089 59.3885 57.2287 58.7365 57.5398C58.0845 57.8466 57.2514 58 56.2372 58H51.2195ZM53.1946 56.3061H56.0455C56.9915 56.3061 57.669 56.1229 58.0781 55.7564C58.4872 55.3899 58.6918 54.9318 58.6918 54.3821C58.6918 53.9687 58.5874 53.5895 58.3786 53.2443C58.1697 52.8991 57.8714 52.6243 57.4837 52.4197C57.1001 52.2152 56.6442 52.1129 56.1158 52.1129H53.1946V56.3061ZM53.1946 50.5724H55.8409C56.2841 50.5724 56.6825 50.4872 57.0362 50.3168C57.3942 50.1463 57.6776 49.9077 57.8864 49.6009C58.0994 49.2898 58.206 48.9233 58.206 48.5014C58.206 47.9602 58.0163 47.5064 57.6371 47.1399C57.2578 46.7734 56.6761 46.5902 55.892 46.5902H53.1946V50.5724ZM74.3683 51.4545C74.3683 52.8523 74.1126 54.054 73.6012 55.0597C73.0898 56.0611 72.3889 56.8324 71.4982 57.3736C70.6119 57.9105 69.604 58.179 68.4748 58.179C67.3413 58.179 66.3292 57.9105 65.4386 57.3736C64.5522 56.8324 63.8533 56.0589 63.342 55.0533C62.8306 54.0476 62.5749 52.848 62.5749 51.4545C62.5749 50.0568 62.8306 48.8572 63.342 47.8558C63.8533 46.8501 64.5522 46.0788 65.4386 45.5419C66.3292 45.0007 67.3413 44.7301 68.4748 44.7301C69.604 44.7301 70.6119 45.0007 71.4982 45.5419C72.3889 46.0788 73.0898 46.8501 73.6012 47.8558C74.1126 48.8572 74.3683 50.0568 74.3683 51.4545ZM72.4123 51.4545C72.4123 50.3892 72.2397 49.4922 71.8945 48.7635C71.5536 48.0305 71.0849 47.4766 70.4883 47.1016C69.896 46.7223 69.2248 46.5327 68.4748 46.5327C67.7205 46.5327 67.0472 46.7223 66.4549 47.1016C65.8626 47.4766 65.3938 48.0305 65.0487 48.7635C64.7077 49.4922 64.5373 50.3892 64.5373 51.4545C64.5373 52.5199 64.7077 53.419 65.0487 54.152C65.3938 54.8807 65.8626 55.4347 66.4549 55.8139C67.0472 56.1889 67.7205 56.3764 68.4748 56.3764C69.2248 56.3764 69.896 56.1889 70.4883 55.8139C71.0849 55.4347 71.5536 54.8807 71.8945 54.152C72.2397 53.419 72.4123 52.5199 72.4123 51.4545ZM77.2862 58H75.1896L79.9006 44.9091H82.1825L86.8935 58H84.7969L81.0959 47.2869H80.9936L77.2862 58ZM77.6378 52.8736H84.4389V54.5355H77.6378V52.8736ZM88.7839 58V44.9091H93.4501C94.4643 44.9091 95.3059 45.0838 95.975 45.4332C96.6483 45.7827 97.1511 46.2663 97.4835 46.8842C97.8159 47.4979 97.9821 48.2074 97.9821 49.0128C97.9821 49.8139 97.8137 50.5192 97.4771 51.1286C97.1447 51.7337 96.6419 52.2045 95.9686 52.5412C95.2995 52.8778 94.4579 53.0462 93.4437 53.0462H89.9089V51.3459H93.2647C93.9039 51.3459 94.4238 51.2543 94.8244 51.071C95.2292 50.8878 95.5254 50.6214 95.7129 50.272C95.9004 49.9226 95.9941 49.5028 95.9941 49.0128C95.9941 48.5185 95.8983 48.0902 95.7065 47.728C95.519 47.3658 95.2228 47.0888 94.818 46.897C94.4174 46.701 93.8912 46.603 93.2392 46.603H90.7591V58H88.7839ZM95.2463 52.0938L98.4806 58H96.2306L93.0602 52.0938H95.2463ZM104.623 58H100.385V44.9091H104.758C106.04 44.9091 107.142 45.1712 108.062 45.6953C108.983 46.2152 109.688 46.9631 110.178 47.9389C110.672 48.9105 110.92 50.076 110.92 51.4354C110.92 52.799 110.67 53.9709 110.172 54.951C109.677 55.9311 108.961 56.6854 108.024 57.2138C107.086 57.7379 105.953 58 104.623 58ZM102.361 56.2741H104.515C105.512 56.2741 106.341 56.0866 107.001 55.7116C107.662 55.3324 108.156 54.7848 108.484 54.0689C108.812 53.3487 108.976 52.4709 108.976 51.4354C108.976 50.4084 108.812 49.5369 108.484 48.821C108.16 48.1051 107.677 47.5618 107.033 47.1911C106.39 46.8203 105.591 46.6349 104.636 46.6349H102.361V56.2741Z" fill="black"/>
<path d="M69.871 11.1415C67.2793 8.51341 63.9773 6.72364 60.3825 5.99854C56.7877 5.27345 53.0616 5.64559 49.6754 7.06791C46.2891 8.49023 43.3949 10.8988 41.3586 13.9892C39.3223 17.0795 38.2354 20.7127 38.2354 24.4294V31.3198H49.3545V28.8142H40.7063V24.4294C40.7063 15.4492 47.9112 8.14311 56.7671 8.14311C65.623 8.14311 72.8279 15.4492 72.8279 24.4294V28.8142H64.1798V31.3198H75.2988V24.4294C75.3055 21.9607 74.8292 19.515 73.8975 17.2342C72.9658 14.9533 71.5973 12.8825 69.871 11.1415V11.1415Z" fill="black"/>
<path d="M43.1772 20.6711H45.6481V23.1767H43.1772V20.6711ZM55.5317 10.0223H58.0026V12.5279H55.5317V10.0223ZM47.5013 13.1543H49.9722V15.6599H47.5013V13.1543ZM67.8861 20.6711H70.357V23.1767H67.8861V20.6711ZM59.9501 26.2382L65.2934 14.9495L63.0657 13.8652L57.7237 25.1509C56.5413 24.912 55.3135 25.1187 54.2706 25.7322C53.2277 26.3457 52.4414 27.3239 52.0589 28.4834C51.6765 29.6429 51.7243 30.904 52.1934 32.0303C52.6625 33.1565 53.5206 34.0706 54.6069 34.6011C55.6932 35.1316 56.933 35.2421 58.0938 34.9118C59.2547 34.5815 60.2569 33.8332 60.9124 32.8071C61.568 31.781 61.832 30.5477 61.6548 29.3383C61.4776 28.129 60.8715 27.0267 59.9501 26.2382V26.2382ZM56.7671 32.5726C56.2784 32.5726 55.8007 32.4257 55.3944 32.1504C54.988 31.8751 54.6713 31.4837 54.4843 31.0259C54.2973 30.5681 54.2484 30.0643 54.3437 29.5782C54.439 29.0922 54.6744 28.6457 55.0199 28.2953C55.3655 27.9449 55.8058 27.7063 56.2851 27.6096C56.7644 27.5129 57.2612 27.5625 57.7127 27.7522C58.1642 27.9418 58.5501 28.263 58.8216 28.675C59.0931 29.0871 59.238 29.5715 59.238 30.0671C59.2373 30.7313 58.9767 31.3682 58.5135 31.8379C58.0503 32.3077 57.4222 32.5719 56.7671 32.5726Z" fill="black"/>
</svg>
