<svg width="157" height="69" viewBox="0 0 157 69" fill="none" xmlns="http://www.w3.org/2000/svg">
<path d="M5.67614 60H1.43821V46.9091H5.81037C7.09304 46.9091 8.1946 47.1712 9.11506 47.6953C10.0355 48.2152 10.7408 48.9631 11.2308 49.9389C11.7251 50.9105 11.9723 52.076 11.9723 53.4354C11.9723 54.799 11.723 55.9709 11.2244 56.951C10.7301 57.9311 10.0142 58.6854 9.0767 59.2138C8.1392 59.7379 7.00568 60 5.67614 60ZM3.41335 58.2741H5.56747C6.56463 58.2741 7.39347 58.0866 8.05398 57.7116C8.71449 57.3324 9.20881 56.7848 9.53693 56.0689C9.86506 55.3487 10.0291 54.4709 10.0291 53.4354C10.0291 52.4084 9.86506 51.5369 9.53693 50.821C9.21307 50.1051 8.7294 49.5618 8.08594 49.1911C7.44247 48.8203 6.64347 48.6349 5.68892 48.6349H3.41335V58.2741ZM25.7999 53.4545C25.7999 54.8523 25.5442 56.054 25.0328 57.0597C24.5215 58.0611 23.8205 58.8324 22.9299 59.3736C22.0435 59.9105 21.0357 60.179 19.9064 60.179C18.7729 60.179 17.7608 59.9105 16.8702 59.3736C15.9838 58.8324 15.285 58.0589 14.7736 57.0533C14.2623 56.0476 14.0066 54.848 14.0066 53.4545C14.0066 52.0568 14.2623 50.8572 14.7736 49.8558C15.285 48.8501 15.9838 48.0788 16.8702 47.5419C17.7608 47.0007 18.7729 46.7301 19.9064 46.7301C21.0357 46.7301 22.0435 47.0007 22.9299 47.5419C23.8205 48.0788 24.5215 48.8501 25.0328 49.8558C25.5442 50.8572 25.7999 52.0568 25.7999 53.4545ZM23.8439 53.4545C23.8439 52.3892 23.6713 51.4922 23.3262 50.7635C22.9853 50.0305 22.5165 49.4766 21.9199 49.1016C21.3276 48.7223 20.6564 48.5327 19.9064 48.5327C19.1522 48.5327 18.4789 48.7223 17.8865 49.1016C17.2942 49.4766 16.8255 50.0305 16.4803 50.7635C16.1394 51.4922 15.9689 52.3892 15.9689 53.4545C15.9689 54.5199 16.1394 55.419 16.4803 56.152C16.8255 56.8807 17.2942 57.4347 17.8865 57.8139C18.4789 58.1889 19.1522 58.3764 19.9064 58.3764C20.6564 58.3764 21.3276 58.1889 21.9199 57.8139C22.5165 57.4347 22.9853 56.8807 23.3262 56.152C23.6713 55.419 23.8439 54.5199 23.8439 53.4545ZM38.8285 46.9091V60H37.0131L30.359 50.3991H30.2376V60H28.2624V46.9091H30.0906L36.7511 56.5227H36.8725V46.9091H38.8285ZM53.0811 53.4545C53.0811 54.8523 52.8255 56.054 52.3141 57.0597C51.8027 58.0611 51.1017 58.8324 50.2111 59.3736C49.3248 59.9105 48.3169 60.179 47.1877 60.179C46.0542 60.179 45.0421 59.9105 44.1515 59.3736C43.2651 58.8324 42.5662 58.0589 42.0549 57.0533C41.5435 56.0476 41.2878 54.848 41.2878 53.4545C41.2878 52.0568 41.5435 50.8572 42.0549 49.8558C42.5662 48.8501 43.2651 48.0788 44.1515 47.5419C45.0421 47.0007 46.0542 46.7301 47.1877 46.7301C48.3169 46.7301 49.3248 47.0007 50.2111 47.5419C51.1017 48.0788 51.8027 48.8501 52.3141 49.8558C52.8255 50.8572 53.0811 52.0568 53.0811 53.4545ZM51.1252 53.4545C51.1252 52.3892 50.9526 51.4922 50.6074 50.7635C50.2665 50.0305 49.7978 49.4766 49.2012 49.1016C48.6088 48.7223 47.9377 48.5327 47.1877 48.5327C46.4334 48.5327 45.7601 48.7223 45.1678 49.1016C44.5755 49.4766 44.1067 50.0305 43.7615 50.7635C43.4206 51.4922 43.2502 52.3892 43.2502 53.4545C43.2502 54.5199 43.4206 55.419 43.7615 56.152C44.1067 56.8807 44.5755 57.4347 45.1678 57.8139C45.7601 58.1889 46.4334 58.3764 47.1877 58.3764C47.9377 58.3764 48.6088 58.1889 49.2012 57.8139C49.7978 57.4347 50.2665 56.8807 50.6074 56.152C50.9526 55.419 51.1252 54.5199 51.1252 53.4545ZM55.5437 60V46.9091H60.2099C61.2241 46.9091 62.0657 47.0838 62.7347 47.4332C63.408 47.7827 63.9109 48.2663 64.2433 48.8842C64.5756 49.4979 64.7418 50.2074 64.7418 51.0128C64.7418 51.8139 64.5735 52.5192 64.2369 53.1286C63.9045 53.7337 63.4016 54.2045 62.7283 54.5412C62.0593 54.8778 61.2177 55.0462 60.2035 55.0462H56.6687V53.3459H60.0245C60.6637 53.3459 61.1836 53.2543 61.5842 53.071C61.989 52.8878 62.2852 52.6214 62.4727 52.272C62.6602 51.9226 62.7539 51.5028 62.7539 51.0128C62.7539 50.5185 62.658 50.0902 62.4663 49.728C62.2788 49.3658 61.9826 49.0888 61.5778 48.897C61.1772 48.701 60.6509 48.603 59.9989 48.603H57.5188V60H55.5437ZM62.006 54.0938L65.2404 60H62.9904L59.82 54.0938H62.006ZM71.9089 60V46.9091H76.5751C77.5936 46.9091 78.4373 47.0945 79.1064 47.4652C79.7754 47.8359 80.2761 48.343 80.6085 48.9865C80.9409 49.6257 81.1071 50.3459 81.1071 51.147C81.1071 51.9524 80.9387 52.6768 80.6021 53.3203C80.2697 53.9595 79.7669 54.4666 79.0936 54.8416C78.4245 55.2124 77.5829 55.3977 76.5687 55.3977H73.3599V53.723H76.3897C77.0332 53.723 77.5552 53.6122 77.9558 53.3906C78.3564 53.1648 78.6504 52.858 78.8379 52.4702C79.0254 52.0824 79.1191 51.6413 79.1191 51.147C79.1191 50.6527 79.0254 50.2138 78.8379 49.8303C78.6504 49.4467 78.3542 49.1463 77.9494 48.929C77.5488 48.7116 77.0204 48.603 76.3642 48.603H73.8841V60H71.9089ZM83.4226 60V46.9091H88.0888C89.103 46.9091 89.9446 47.0838 90.6136 47.4332C91.2869 47.7827 91.7898 48.2663 92.1222 48.8842C92.4545 49.4979 92.6207 50.2074 92.6207 51.0128C92.6207 51.8139 92.4524 52.5192 92.1158 53.1286C91.7834 53.7337 91.2805 54.2045 90.6072 54.5412C89.9382 54.8778 89.0966 55.0462 88.0824 55.0462H84.5476V53.3459H87.9034C88.5426 53.3459 89.0625 53.2543 89.4631 53.071C89.8679 52.8878 90.1641 52.6214 90.3516 52.272C90.5391 51.9226 90.6328 51.5028 90.6328 51.0128C90.6328 50.5185 90.5369 50.0902 90.3452 49.728C90.1577 49.3658 89.8615 49.0888 89.4567 48.897C89.0561 48.701 88.5298 48.603 87.8778 48.603H85.3977V60H83.4226ZM89.8849 54.0938L93.1193 60H90.8693L87.6989 54.0938H89.8849ZM106.396 53.4545C106.396 54.8523 106.14 56.054 105.629 57.0597C105.117 58.0611 104.416 58.8324 103.526 59.3736C102.639 59.9105 101.631 60.179 100.502 60.179C99.3686 60.179 98.3565 59.9105 97.4659 59.3736C96.5795 58.8324 95.8807 58.0589 95.3693 57.0533C94.858 56.0476 94.6023 54.848 94.6023 53.4545C94.6023 52.0568 94.858 50.8572 95.3693 49.8558C95.8807 48.8501 96.5795 48.0788 97.4659 47.5419C98.3565 47.0007 99.3686 46.7301 100.502 46.7301C101.631 46.7301 102.639 47.0007 103.526 47.5419C104.416 48.0788 105.117 48.8501 105.629 49.8558C106.14 50.8572 106.396 52.0568 106.396 53.4545ZM104.44 53.4545C104.44 52.3892 104.267 51.4922 103.922 50.7635C103.581 50.0305 103.112 49.4766 102.516 49.1016C101.923 48.7223 101.252 48.5327 100.502 48.5327C99.7479 48.5327 99.0746 48.7223 98.4822 49.1016C97.8899 49.4766 97.4212 50.0305 97.076 50.7635C96.7351 51.4922 96.5646 52.3892 96.5646 53.4545C96.5646 54.5199 96.7351 55.419 97.076 56.152C97.4212 56.8807 97.8899 57.4347 98.4822 57.8139C99.0746 58.1889 99.7479 58.3764 100.502 58.3764C101.252 58.3764 101.923 58.1889 102.516 57.8139C103.112 57.4347 103.581 56.8807 103.922 56.152C104.267 55.419 104.44 54.5199 104.44 53.4545ZM108.858 60V46.9091H116.976V48.6094H110.833V52.598H116.394V54.2919H110.833V60H108.858ZM121.38 46.9091V60H119.405V46.9091H121.38ZM124.257 60V46.9091H126.232V58.2997H132.164V60H124.257ZM134.417 60V46.9091H142.624V48.6094H136.392V52.598H142.196V54.2919H136.392V58.2997H142.701V60H134.417Z" fill="black"/>
<g clip-path="url(#clip0_312_3)">
<path d="M90.1874 0H64.243C62.4594 0 61 1.47986 61 3.28859V31.7897C61 33.5984 62.4594 35.0783 64.243 35.0783H90.1874C91.9711 35.0783 93.4305 33.5984 93.4305 31.7897V3.28859C93.4305 1.47986 91.9711 0 90.1874 0ZM89.1064 30.6935H65.3241V4.38478H89.1064V30.6935ZM69.6481 19.7315H84.7823V21.9239H69.6481V19.7315ZM69.6481 24.1163H84.7823V26.3087H69.6481V24.1163ZM71.8102 9.86576C71.8103 9.43375 71.8943 9.006 72.0575 8.60693C72.2207 8.20787 72.4598 7.8453 72.7611 7.53992C73.0624 7.23455 73.4202 6.99235 73.8138 6.82716C74.2075 6.66198 74.6293 6.57703 75.0554 6.57717C75.4814 6.57732 75.9032 6.66255 76.2967 6.828C76.6903 6.99346 77.0478 7.2359 77.349 7.54147C77.6501 7.84705 77.889 8.20978 78.0519 8.60896C78.2148 9.00814 78.2985 9.43594 78.2984 9.86795C78.2981 10.7404 77.9561 11.5771 77.3475 12.1938C76.7389 12.8105 75.9136 13.1568 75.0532 13.1565C74.1928 13.1562 73.3678 12.8094 72.7596 12.1922C72.1514 11.5751 71.8099 10.7382 71.8102 9.86576ZM77.2152 13.1543H72.8912C71.1075 13.1543 69.6481 14.1409 69.6481 15.3467V17.5391H80.4583V15.3467C80.4583 14.1409 78.9989 13.1543 77.2152 13.1543Z" fill="black"/>
</g>
<defs>
<clipPath id="clip0_312_3">
<rect width="34.5925" height="35.0783" fill="white" transform="translate(61)"/>
</clipPath>
</defs>
</svg>
