<svg width="66" height="66" viewBox="0 0 66 66" fill="none" xmlns="http://www.w3.org/2000/svg">
<path d="M33 33C40.5939 33 46.75 26.8439 46.75 19.25C46.75 11.6561 40.5939 5.5 33 5.5C25.4061 5.5 19.25 11.6561 19.25 19.25C19.25 26.8439 25.4061 33 33 33Z" stroke="#888888" stroke-opacity="0.64" stroke-width="2"/>
<path d="M46.75 38.5H47.718C49.7284 38.5006 51.6695 39.2353 53.1765 40.566C54.6835 41.8968 55.6527 43.7321 55.902 45.727L56.9772 54.318C57.0739 55.0919 57.005 55.8776 56.7748 56.6228C56.5447 57.368 56.1587 58.0558 55.6425 58.6404C55.1262 59.2251 54.4915 59.6932 53.7805 60.0138C53.0695 60.3345 52.2984 60.5002 51.5185 60.5H14.4815C13.7015 60.5002 12.9305 60.3345 12.2195 60.0138C11.5085 59.6932 10.8738 59.2251 10.3575 58.6404C9.84127 58.0558 9.45527 57.368 9.22515 56.6228C8.99502 55.8776 8.92602 55.0919 9.02273 54.318L10.0952 45.727C10.3446 43.7311 11.3146 41.8951 12.8228 40.5642C14.3309 39.2333 16.2733 38.4992 18.2847 38.5H19.25" stroke="#888888" stroke-opacity="0.64" stroke-width="2" stroke-linecap="round" stroke-linejoin="round"/>
</svg>
