<svg width="118" height="67" viewBox="0 0 118 67" fill="none" xmlns="http://www.w3.org/2000/svg">
<path d="M1.43821 58V44.9091H3.41335V56.2997H9.34517V58H1.43821ZM22.4601 51.4545C22.4601 52.8523 22.2044 54.054 21.693 55.0597C21.1816 56.0611 20.4806 56.8324 19.59 57.3736C18.7037 57.9105 17.6958 58.179 16.5666 58.179C15.4331 58.179 14.421 57.9105 13.5304 57.3736C12.644 56.8324 11.9451 56.0589 11.4338 55.0533C10.9224 54.0476 10.6667 52.848 10.6667 51.4545C10.6667 50.0568 10.9224 48.8572 11.4338 47.8558C11.9451 46.8501 12.644 46.0788 13.5304 45.5419C14.421 45.0007 15.4331 44.7301 16.5666 44.7301C17.6958 44.7301 18.7037 45.0007 19.59 45.5419C20.4806 46.0788 21.1816 46.8501 21.693 47.8558C22.2044 48.8572 22.4601 50.0568 22.4601 51.4545ZM20.5041 51.4545C20.5041 50.3892 20.3315 49.4922 19.9863 48.7635C19.6454 48.0305 19.1767 47.4766 18.5801 47.1016C17.9877 46.7223 17.3166 46.5327 16.5666 46.5327C15.8123 46.5327 15.139 46.7223 14.5467 47.1016C13.9544 47.4766 13.4856 48.0305 13.1404 48.7635C12.7995 49.4922 12.6291 50.3892 12.6291 51.4545C12.6291 52.5199 12.7995 53.419 13.1404 54.152C13.4856 54.8807 13.9544 55.4347 14.5467 55.8139C15.139 56.1889 15.8123 56.3764 16.5666 56.3764C17.3166 56.3764 17.9877 56.1889 18.5801 55.8139C19.1767 55.4347 19.6454 54.8807 19.9863 54.152C20.3315 53.419 20.5041 52.5199 20.5041 51.4545ZM35.7955 49.1662H33.8011C33.7244 48.7401 33.5817 48.3651 33.3729 48.0412C33.1641 47.7173 32.9084 47.4425 32.6058 47.2166C32.3033 46.9908 31.9645 46.8203 31.5895 46.7053C31.2188 46.5902 30.8246 46.5327 30.407 46.5327C29.6527 46.5327 28.9773 46.7223 28.3807 47.1016C27.7884 47.4808 27.3196 48.0369 26.9744 48.7699C26.6335 49.5028 26.4631 50.3977 26.4631 51.4545C26.4631 52.5199 26.6335 53.419 26.9744 54.152C27.3196 54.8849 27.7905 55.4389 28.3871 55.8139C28.9837 56.1889 29.6548 56.3764 30.4006 56.3764C30.8139 56.3764 31.206 56.321 31.5767 56.2102C31.9517 56.0952 32.2905 55.9268 32.593 55.7053C32.8956 55.4837 33.1513 55.2131 33.3601 54.8935C33.5732 54.5696 33.7202 54.1989 33.8011 53.7812L35.7955 53.7876C35.6889 54.4311 35.4822 55.0234 35.1754 55.5646C34.8729 56.1016 34.483 56.5661 34.0057 56.9581C33.5327 57.3459 32.9915 57.6463 32.3821 57.8594C31.7727 58.0724 31.108 58.179 30.3878 58.179C29.2543 58.179 28.2443 57.9105 27.358 57.3736C26.4716 56.8324 25.7727 56.0589 25.2614 55.0533C24.7543 54.0476 24.5007 52.848 24.5007 51.4545C24.5007 50.0568 24.7564 48.8572 25.2678 47.8558C25.7791 46.8501 26.478 46.0788 27.3643 45.5419C28.2507 45.0007 29.2585 44.7301 30.3878 44.7301C31.0824 44.7301 31.7301 44.8303 32.331 45.0305C32.9361 45.2266 33.4794 45.5163 33.9609 45.8999C34.4425 46.2791 34.8409 46.7436 35.1562 47.2933C35.4716 47.8388 35.6847 48.4631 35.7955 49.1662ZM39.1768 58H37.0803L41.7912 44.9091H44.0732L48.7841 58H46.6875L42.9865 47.2869H42.8842L39.1768 58ZM39.5284 52.8736H46.3295V54.5355H39.5284V52.8736ZM48.4821 46.6094V44.9091H58.6135V46.6094H54.5289V58H52.5602V46.6094H48.4821ZM60.8523 58V44.9091H69.0597V46.6094H62.8274V50.598H68.6314V52.2919H62.8274V56.2997H69.1364V58H60.8523ZM84.88 44.9091H86.8615V53.5192C86.8615 54.4354 86.6463 55.2472 86.2159 55.9545C85.7855 56.6577 85.1804 57.2116 84.4006 57.6165C83.6207 58.017 82.7067 58.2173 81.6584 58.2173C80.6143 58.2173 79.7024 58.017 78.9226 57.6165C78.1428 57.2116 77.5376 56.6577 77.1072 55.9545C76.6768 55.2472 76.4616 54.4354 76.4616 53.5192V44.9091H78.4368V53.3594C78.4368 53.9517 78.5668 54.478 78.8267 54.9382C79.0909 55.3984 79.4638 55.7607 79.9453 56.0249C80.4268 56.2848 80.9979 56.4148 81.6584 56.4148C82.3232 56.4148 82.8963 56.2848 83.3778 56.0249C83.8636 55.7607 84.2344 55.3984 84.4901 54.9382C84.75 54.478 84.88 53.9517 84.88 53.3594V44.9091ZM96.873 48.348C96.8049 47.7429 96.5236 47.2741 96.0293 46.9418C95.535 46.6051 94.9128 46.4368 94.1628 46.4368C93.6259 46.4368 93.1614 46.522 92.7694 46.6925C92.3773 46.8587 92.0726 47.0888 91.8553 47.3828C91.6422 47.6726 91.5357 48.0028 91.5357 48.3736C91.5357 48.6847 91.6081 48.9531 91.753 49.179C91.9022 49.4048 92.0961 49.5945 92.3347 49.7479C92.5776 49.897 92.8375 50.0227 93.1145 50.125C93.3915 50.223 93.6578 50.304 93.9135 50.3679L95.1919 50.7003C95.6096 50.8026 96.0378 50.9411 96.4767 51.1158C96.9157 51.2905 97.3226 51.5206 97.6976 51.8061C98.0726 52.0916 98.3752 52.4453 98.6053 52.8672C98.8397 53.2891 98.9569 53.794 98.9569 54.3821C98.9569 55.1236 98.7651 55.782 98.3816 56.3572C98.0023 56.9325 97.4505 57.3864 96.726 57.7188C96.0059 58.0511 95.1344 58.2173 94.1117 58.2173C93.1316 58.2173 92.2836 58.0618 91.5676 57.7507C90.8517 57.4396 90.2914 56.9986 89.8865 56.4276C89.4817 55.8523 89.258 55.1705 89.2154 54.3821H91.1969C91.2353 54.8551 91.3887 55.2493 91.6571 55.5646C91.9299 55.8757 92.2772 56.108 92.699 56.2614C93.1252 56.4105 93.5918 56.4851 94.0989 56.4851C94.6571 56.4851 95.1536 56.3977 95.5882 56.223C96.0272 56.044 96.3723 55.7969 96.6238 55.4815C96.8752 55.1619 97.0009 54.7891 97.0009 54.3629C97.0009 53.9751 96.8901 53.6577 96.6685 53.4105C96.4512 53.1634 96.155 52.9588 95.78 52.7969C95.4093 52.6349 94.9895 52.4922 94.5208 52.3686L92.9739 51.9467C91.9256 51.6612 91.0946 51.2415 90.481 50.6875C89.8716 50.1335 89.5669 49.4006 89.5669 48.4886C89.5669 47.7344 89.7715 47.076 90.1806 46.5135C90.5897 45.951 91.1436 45.5142 91.8425 45.2031C92.5414 44.8878 93.3297 44.7301 94.2076 44.7301C95.0939 44.7301 95.8759 44.8857 96.5534 45.1967C97.2353 45.5078 97.7722 45.9361 98.1642 46.4815C98.5563 47.0227 98.7608 47.6449 98.7779 48.348H96.873Z" fill="black"/>
<path d="M48.8836 0C43.4239 0 39 4.46797 39 10.0023C39 19.5717 48.8836 32.0515 48.8836 32.0515C48.8836 32.0515 58.7671 19.5697 58.7671 10.0023C58.7671 4.46997 54.3433 0 48.8836 0V0ZM48.8836 15.5367C47.4681 15.5367 46.1106 14.9665 45.1096 13.9515C44.1087 12.9365 43.5464 11.56 43.5464 10.1246C43.5464 8.68921 44.1087 7.31263 45.1096 6.29767C46.1106 5.28271 47.4681 4.71251 48.8836 4.71251C50.2991 4.71251 51.6566 5.28271 52.6575 6.29767C53.6584 7.31263 54.2207 8.68921 54.2207 10.1246C54.2207 11.56 53.6584 12.9365 52.6575 13.9515C51.6566 14.9665 50.2991 15.5367 48.8836 15.5367Z" fill="black"/>
</svg>
