<svg width="114" height="68" viewBox="0 0 114 68" fill="none" xmlns="http://www.w3.org/2000/svg">
<path d="M8.57812 49.348C8.50994 48.7429 8.22869 48.2741 7.73438 47.9418C7.24006 47.6051 6.6179 47.4368 5.8679 47.4368C5.33097 47.4368 4.86648 47.522 4.47443 47.6925C4.08239 47.8587 3.7777 48.0888 3.56037 48.3828C3.3473 48.6726 3.24077 49.0028 3.24077 49.3736C3.24077 49.6847 3.31321 49.9531 3.4581 50.179C3.60724 50.4048 3.80114 50.5945 4.03977 50.7479C4.28267 50.897 4.54261 51.0227 4.8196 51.125C5.09659 51.223 5.36293 51.304 5.61861 51.3679L6.89702 51.7003C7.31463 51.8026 7.7429 51.9411 8.18182 52.1158C8.62074 52.2905 9.0277 52.5206 9.4027 52.8061C9.7777 53.0916 10.0803 53.4453 10.3104 53.8672C10.5447 54.2891 10.6619 54.794 10.6619 55.3821C10.6619 56.1236 10.4702 56.782 10.0866 57.3572C9.70739 57.9325 9.15554 58.3864 8.43111 58.7188C7.71094 59.0511 6.83949 59.2173 5.81676 59.2173C4.83665 59.2173 3.98864 59.0618 3.27273 58.7507C2.55682 58.4396 1.99645 57.9986 1.59162 57.4276C1.18679 56.8523 0.963068 56.1705 0.920455 55.3821H2.90199C2.94034 55.8551 3.09375 56.2493 3.36222 56.5646C3.63494 56.8757 3.98224 57.108 4.40412 57.2614C4.83026 57.4105 5.29688 57.4851 5.80398 57.4851C6.36222 57.4851 6.85867 57.3977 7.29332 57.223C7.73224 57.044 8.07742 56.7969 8.32884 56.4815C8.58026 56.1619 8.70597 55.7891 8.70597 55.3629C8.70597 54.9751 8.59517 54.6577 8.37358 54.4105C8.15625 54.1634 7.86009 53.9588 7.48509 53.7969C7.11435 53.6349 6.6946 53.4922 6.22585 53.3686L4.67898 52.9467C3.63068 52.6612 2.79972 52.2415 2.18608 51.6875C1.5767 51.1335 1.27202 50.4006 1.27202 49.4886C1.27202 48.7344 1.47656 48.076 1.88565 47.5135C2.29474 46.951 2.84872 46.5142 3.54759 46.2031C4.24645 45.8878 5.0348 45.7301 5.91264 45.7301C6.79901 45.7301 7.58097 45.8857 8.25852 46.1967C8.94034 46.5078 9.47727 46.9361 9.86932 47.4815C10.2614 48.0227 10.4659 48.6449 10.483 49.348H8.57812ZM23.8951 50.1662H21.9007C21.824 49.7401 21.6813 49.3651 21.4725 49.0412C21.2637 48.7173 21.008 48.4425 20.7054 48.2166C20.4029 47.9908 20.0641 47.8203 19.6891 47.7053C19.3184 47.5902 18.9242 47.5327 18.5066 47.5327C17.7523 47.5327 17.0769 47.7223 16.4803 48.1016C15.888 48.4808 15.4192 49.0369 15.074 49.7699C14.7331 50.5028 14.5627 51.3977 14.5627 52.4545C14.5627 53.5199 14.7331 54.419 15.074 55.152C15.4192 55.8849 15.8901 56.4389 16.4867 56.8139C17.0833 57.1889 17.7544 57.3764 18.5002 57.3764C18.9135 57.3764 19.3056 57.321 19.6763 57.2102C20.0513 57.0952 20.3901 56.9268 20.6926 56.7053C20.9952 56.4837 21.2509 56.2131 21.4597 55.8935C21.6728 55.5696 21.8198 55.1989 21.9007 54.7812L23.8951 54.7876C23.7885 55.4311 23.5819 56.0234 23.275 56.5646C22.9725 57.1016 22.5826 57.5661 22.1053 57.9581C21.6323 58.3459 21.0911 58.6463 20.4817 58.8594C19.8723 59.0724 19.2076 59.179 18.4874 59.179C17.3539 59.179 16.3439 58.9105 15.4576 58.3736C14.5712 57.8324 13.8723 57.0589 13.361 56.0533C12.8539 55.0476 12.6003 53.848 12.6003 52.4545C12.6003 51.0568 12.856 49.8572 13.3674 48.8558C13.8787 47.8501 14.5776 47.0788 15.464 46.5419C16.3503 46.0007 17.3581 45.7301 18.4874 45.7301C19.182 45.7301 19.8297 45.8303 20.4306 46.0305C21.0357 46.2266 21.579 46.5163 22.0605 46.8999C22.5421 47.2791 22.9405 47.7436 23.2559 48.2933C23.5712 48.8388 23.7843 49.4631 23.8951 50.1662ZM26.2585 59V45.9091H28.2337V51.598H34.7599V45.9091H36.7415V59H34.7599V53.2919H28.2337V59H26.2585ZM39.6179 59V45.9091H47.8253V47.6094H41.593V51.598H47.397V53.2919H41.593V57.2997H47.902V59H39.6179ZM54.7015 59H50.4636V45.9091H54.8358C56.1184 45.9091 57.22 46.1712 58.1404 46.6953C59.0609 47.2152 59.7662 47.9631 60.2562 48.9389C60.7505 49.9105 60.9977 51.076 60.9977 52.4354C60.9977 53.799 60.7484 54.9709 60.2498 55.951C59.7555 56.9311 59.0396 57.6854 58.1021 58.2138C57.1646 58.7379 56.0311 59 54.7015 59ZM52.4387 57.2741H54.5929C55.59 57.2741 56.4189 57.0866 57.0794 56.7116C57.7399 56.3324 58.2342 55.7848 58.5623 55.0689C58.8904 54.3487 59.0545 53.4709 59.0545 52.4354C59.0545 51.4084 58.8904 50.5369 58.5623 49.821C58.2385 49.1051 57.7548 48.5618 57.1113 48.1911C56.4679 47.8203 55.6689 47.6349 54.7143 47.6349H52.4387V57.2741ZM71.8722 45.9091H73.8537V54.5192C73.8537 55.4354 73.6385 56.2472 73.2081 56.9545C72.7777 57.6577 72.1726 58.2116 71.3928 58.6165C70.6129 59.017 69.6989 59.2173 68.6506 59.2173C67.6065 59.2173 66.6946 59.017 65.9148 58.6165C65.1349 58.2116 64.5298 57.6577 64.0994 56.9545C63.669 56.2472 63.4538 55.4354 63.4538 54.5192V45.9091H65.429V54.3594C65.429 54.9517 65.5589 55.478 65.8189 55.9382C66.0831 56.3984 66.456 56.7607 66.9375 57.0249C67.419 57.2848 67.9901 57.4148 68.6506 57.4148C69.3153 57.4148 69.8885 57.2848 70.37 57.0249C70.8558 56.7607 71.2266 56.3984 71.4822 55.9382C71.7422 55.478 71.8722 54.9517 71.8722 54.3594V45.9091ZM76.7253 59V45.9091H78.7005V57.2997H84.6323V59H76.7253ZM86.8855 59V45.9091H95.0929V47.6094H88.8606V51.598H94.6646V53.2919H88.8606V57.2997H95.1696V59H86.8855Z" fill="black"/>
<path fill-rule="evenodd" clip-rule="evenodd" d="M51.1666 28.3333C52.2717 28.3333 53.3315 27.8943 54.1129 27.1129C54.8943 26.3315 55.3333 25.2717 55.3333 24.1666C55.3333 23.0615 54.8943 22.0017 54.1129 21.2203C53.3315 20.4389 52.2717 19.9999 51.1666 19.9999C50.0616 19.9999 49.0018 20.4389 48.2204 21.2203C47.439 22.0017 47 23.0615 47 24.1666C47 25.2717 47.439 26.3315 48.2204 27.1129C49.0018 27.8943 50.0616 28.3333 51.1666 28.3333ZM51.1666 29.9999C52.7137 29.9999 54.1975 29.3853 55.2914 28.2914C56.3854 27.1974 57 25.7137 57 24.1666C57 22.6195 56.3854 21.1358 55.2914 20.0418C54.1975 18.9478 52.7137 18.3333 51.1666 18.3333C49.6196 18.3333 48.1358 18.9478 47.0419 20.0418C45.9479 21.1358 45.3333 22.6195 45.3333 24.1666C45.3333 25.7137 45.9479 27.1974 47.0419 28.2914C48.1358 29.3853 49.6196 29.9999 51.1666 29.9999V29.9999Z" fill="black"/>
<path fill-rule="evenodd" clip-rule="evenodd" d="M51.1666 21.25C51.3877 21.25 51.5996 21.3378 51.7559 21.4941C51.9122 21.6504 52 21.8623 52 22.0833V23.8217L52.5891 24.4108C52.7409 24.568 52.8249 24.7785 52.823 24.997C52.8211 25.2155 52.7335 25.4245 52.579 25.579C52.4245 25.7335 52.2155 25.8212 51.997 25.8231C51.7785 25.825 51.568 25.741 51.4108 25.5892L50.3333 24.5117V22.0833C50.3333 21.8623 50.4211 21.6504 50.5774 21.4941C50.7337 21.3378 50.9456 21.25 51.1666 21.25ZM33.6666 14.1667H32V15.8333H33.6666V14.1667ZM32 12.5C31.558 12.5 31.134 12.6756 30.8215 12.9882C30.5089 13.3007 30.3333 13.7246 30.3333 14.1667V15.8333C30.3333 16.2754 30.5089 16.6993 30.8215 17.0118C31.134 17.3244 31.558 17.5 32 17.5H33.6666C34.1087 17.5 34.5326 17.3244 34.8452 17.0118C35.1577 16.6993 35.3333 16.2754 35.3333 15.8333V14.1667C35.3333 13.7246 35.1577 13.3007 34.8452 12.9882C34.5326 12.6756 34.1087 12.5 33.6666 12.5H32ZM40.3333 14.1667H38.6666V15.8333H40.3333V14.1667ZM38.6666 12.5C38.2246 12.5 37.8007 12.6756 37.4881 12.9882C37.1756 13.3007 37 13.7246 37 14.1667V15.8333C37 16.2754 37.1756 16.6993 37.4881 17.0118C37.8007 17.3244 38.2246 17.5 38.6666 17.5H40.3333C40.7753 17.5 41.1993 17.3244 41.5118 17.0118C41.8244 16.6993 42 16.2754 42 15.8333V14.1667C42 13.7246 41.8244 13.3007 41.5118 12.9882C41.1993 12.6756 40.7753 12.5 40.3333 12.5H38.6666ZM47 14.1667H45.3333V15.8333H47V14.1667ZM45.3333 12.5C44.8913 12.5 44.4674 12.6756 44.1548 12.9882C43.8422 13.3007 43.6666 13.7246 43.6666 14.1667V15.8333C43.6666 16.2754 43.8422 16.6993 44.1548 17.0118C44.4674 17.3244 44.8913 17.5 45.3333 17.5H47C47.442 17.5 47.8659 17.3244 48.1785 17.0118C48.4911 16.6993 48.6666 16.2754 48.6666 15.8333V14.1667C48.6666 13.7246 48.4911 13.3007 48.1785 12.9882C47.8659 12.6756 47.442 12.5 47 12.5H45.3333ZM33.6666 20.8333H32V22.5H33.6666V20.8333ZM32 19.1667C31.558 19.1667 31.134 19.3423 30.8215 19.6548C30.5089 19.9674 30.3333 20.3913 30.3333 20.8333V22.5C30.3333 22.942 30.5089 23.366 30.8215 23.6785C31.134 23.9911 31.558 24.1667 32 24.1667H33.6666C34.1087 24.1667 34.5326 23.9911 34.8452 23.6785C35.1577 23.366 35.3333 22.942 35.3333 22.5V20.8333C35.3333 20.3913 35.1577 19.9674 34.8452 19.6548C34.5326 19.3423 34.1087 19.1667 33.6666 19.1667H32ZM40.3333 20.8333H38.6666V22.5H40.3333V20.8333ZM38.6666 19.1667C38.2246 19.1667 37.8007 19.3423 37.4881 19.6548C37.1756 19.9674 37 20.3913 37 20.8333V22.5C37 22.942 37.1756 23.366 37.4881 23.6785C37.8007 23.9911 38.2246 24.1667 38.6666 24.1667H40.3333C40.7753 24.1667 41.1993 23.9911 41.5118 23.6785C41.8244 23.366 42 22.942 42 22.5V20.8333C42 20.3913 41.8244 19.9674 41.5118 19.6548C41.1993 19.3423 40.7753 19.1667 40.3333 19.1667H38.6666Z" fill="black"/>
<path fill-rule="evenodd" clip-rule="evenodd" d="M28.6667 5C28.6667 4.77899 28.7545 4.56702 28.9107 4.41074C29.067 4.25446 29.279 4.16667 29.5 4.16667H33.6667V2.5H29.5C28.837 2.5 28.2011 2.76339 27.7322 3.23223C27.2634 3.70107 27 4.33696 27 5V25C27 25.663 27.2634 26.2989 27.7322 26.7678C28.2011 27.2366 28.837 27.5 29.5 27.5H46.3792C46.0238 26.991 45.7523 26.4283 45.575 25.8333H29.5C29.279 25.8333 29.067 25.7455 28.9107 25.5893C28.7545 25.433 28.6667 25.221 28.6667 25V5ZM50.3333 18.3917C50.8861 18.3126 51.4473 18.3126 52 18.3917V5C52 4.33696 51.7366 3.70107 51.2678 3.23223C50.7989 2.76339 50.163 2.5 49.5 2.5H47V4.16667H49.5C49.721 4.16667 49.933 4.25446 50.0893 4.41074C50.2455 4.56702 50.3333 4.77899 50.3333 5V18.3917ZM35.3333 4.16667H44.1358V2.5H35.3333V4.16667Z" fill="black"/>
<path fill-rule="evenodd" clip-rule="evenodd" d="M45.3333 2.5H35.3333V5C35.3333 5.22101 35.2455 5.43298 35.0892 5.58926C34.933 5.74554 34.721 5.83333 34.5 5.83333C34.279 5.83333 34.067 5.74554 33.9107 5.58926C33.7544 5.43298 33.6666 5.22101 33.6666 5V2.5H29.5C29.058 2.5 28.634 2.6756 28.3215 2.98816C28.0089 3.30072 27.8333 3.72464 27.8333 4.16667V8.33333C27.8333 8.77536 28.0089 9.19928 28.3215 9.51184C28.634 9.8244 29.058 10 29.5 10H49.5C49.942 10 50.3659 9.8244 50.6785 9.51184C50.9911 9.19928 51.1666 8.77536 51.1666 8.33333V4.16667C51.1666 3.72464 50.9911 3.30072 50.6785 2.98816C50.3659 2.6756 49.942 2.5 49.5 2.5H47V5C47 5.22101 46.9122 5.43298 46.7559 5.58926C46.5996 5.74554 46.3877 5.83333 46.1666 5.83333C45.9456 5.83333 45.7337 5.74554 45.5774 5.58926C45.4211 5.43298 45.3333 5.22101 45.3333 5V2.5Z" fill="black"/>
<path fill-rule="evenodd" clip-rule="evenodd" d="M52 9.99931H28.6667V8.3335H52V9.99931Z" fill="black"/>
<path d="M32 0.833333C32 0.61232 32.0878 0.400358 32.2441 0.244078C32.4004 0.0877975 32.6123 0 32.8333 0C33.0543 0 33.2663 0.0877975 33.4226 0.244078C33.5789 0.400358 33.6667 0.61232 33.6667 0.833333V4.16667C33.6667 4.38768 33.5789 4.59964 33.4226 4.75592C33.2663 4.9122 33.0543 5 32.8333 5C32.6123 5 32.4004 4.9122 32.2441 4.75592C32.0878 4.59964 32 4.38768 32 4.16667V0.833333ZM43.6667 0.833333C43.6667 0.61232 43.7545 0.400358 43.9107 0.244078C44.067 0.0877975 44.279 0 44.5 0C44.721 0 44.933 0.0877975 45.0893 0.244078C45.2455 0.400358 45.3333 0.61232 45.3333 0.833333V4.16667C45.3333 4.38768 45.2455 4.59964 45.0893 4.75592C44.933 4.9122 44.721 5 44.5 5C44.279 5 44.067 4.9122 43.9107 4.75592C43.7545 4.59964 43.6667 4.38768 43.6667 4.16667V0.833333Z" fill="black"/>
</svg>
