<svg width="198" height="83" viewBox="0 0 198 83" fill="none" xmlns="http://www.w3.org/2000/svg">
<path d="M5.67614 55H1.43821V41.9091H5.81037C7.09304 41.9091 8.1946 42.1712 9.11506 42.6953C10.0355 43.2152 10.7408 43.9631 11.2308 44.9389C11.7251 45.9105 11.9723 47.076 11.9723 48.4354C11.9723 49.799 11.723 50.9709 11.2244 51.951C10.7301 52.9311 10.0142 53.6854 9.0767 54.2138C8.1392 54.7379 7.00568 55 5.67614 55ZM3.41335 53.2741H5.56747C6.56463 53.2741 7.39347 53.0866 8.05398 52.7116C8.71449 52.3324 9.20881 51.7848 9.53693 51.0689C9.86506 50.3487 10.0291 49.4709 10.0291 48.4354C10.0291 47.4084 9.86506 46.5369 9.53693 45.821C9.21307 45.1051 8.7294 44.5618 8.08594 44.1911C7.44247 43.8203 6.64347 43.6349 5.68892 43.6349H3.41335V53.2741ZM25.7999 48.4545C25.7999 49.8523 25.5442 51.054 25.0328 52.0597C24.5215 53.0611 23.8205 53.8324 22.9299 54.3736C22.0435 54.9105 21.0357 55.179 19.9064 55.179C18.7729 55.179 17.7608 54.9105 16.8702 54.3736C15.9838 53.8324 15.285 53.0589 14.7736 52.0533C14.2623 51.0476 14.0066 49.848 14.0066 48.4545C14.0066 47.0568 14.2623 45.8572 14.7736 44.8558C15.285 43.8501 15.9838 43.0788 16.8702 42.5419C17.7608 42.0007 18.7729 41.7301 19.9064 41.7301C21.0357 41.7301 22.0435 42.0007 22.9299 42.5419C23.8205 43.0788 24.5215 43.8501 25.0328 44.8558C25.5442 45.8572 25.7999 47.0568 25.7999 48.4545ZM23.8439 48.4545C23.8439 47.3892 23.6713 46.4922 23.3262 45.7635C22.9853 45.0305 22.5165 44.4766 21.9199 44.1016C21.3276 43.7223 20.6564 43.5327 19.9064 43.5327C19.1522 43.5327 18.4789 43.7223 17.8865 44.1016C17.2942 44.4766 16.8255 45.0305 16.4803 45.7635C16.1394 46.4922 15.9689 47.3892 15.9689 48.4545C15.9689 49.5199 16.1394 50.419 16.4803 51.152C16.8255 51.8807 17.2942 52.4347 17.8865 52.8139C18.4789 53.1889 19.1522 53.3764 19.9064 53.3764C20.6564 53.3764 21.3276 53.1889 21.9199 52.8139C22.5165 52.4347 22.9853 51.8807 23.3262 51.152C23.6713 50.419 23.8439 49.5199 23.8439 48.4545ZM38.8285 41.9091V55H37.0131L30.359 45.3991H30.2376V55H28.2624V41.9091H30.0906L36.7511 51.5227H36.8725V41.9091H38.8285ZM53.0811 48.4545C53.0811 49.8523 52.8255 51.054 52.3141 52.0597C51.8027 53.0611 51.1017 53.8324 50.2111 54.3736C49.3248 54.9105 48.3169 55.179 47.1877 55.179C46.0542 55.179 45.0421 54.9105 44.1515 54.3736C43.2651 53.8324 42.5662 53.0589 42.0549 52.0533C41.5435 51.0476 41.2878 49.848 41.2878 48.4545C41.2878 47.0568 41.5435 45.8572 42.0549 44.8558C42.5662 43.8501 43.2651 43.0788 44.1515 42.5419C45.0421 42.0007 46.0542 41.7301 47.1877 41.7301C48.3169 41.7301 49.3248 42.0007 50.2111 42.5419C51.1017 43.0788 51.8027 43.8501 52.3141 44.8558C52.8255 45.8572 53.0811 47.0568 53.0811 48.4545ZM51.1252 48.4545C51.1252 47.3892 50.9526 46.4922 50.6074 45.7635C50.2665 45.0305 49.7978 44.4766 49.2012 44.1016C48.6088 43.7223 47.9377 43.5327 47.1877 43.5327C46.4334 43.5327 45.7601 43.7223 45.1678 44.1016C44.5755 44.4766 44.1067 45.0305 43.7615 45.7635C43.4206 46.4922 43.2502 47.3892 43.2502 48.4545C43.2502 49.5199 43.4206 50.419 43.7615 51.152C44.1067 51.8807 44.5755 52.4347 45.1678 52.8139C45.7601 53.1889 46.4334 53.3764 47.1877 53.3764C47.9377 53.3764 48.6088 53.1889 49.2012 52.8139C49.7978 52.4347 50.2665 51.8807 50.6074 51.152C50.9526 50.419 51.1252 49.5199 51.1252 48.4545ZM55.5437 55V41.9091H60.2099C61.2241 41.9091 62.0657 42.0838 62.7347 42.4332C63.408 42.7827 63.9109 43.2663 64.2433 43.8842C64.5756 44.4979 64.7418 45.2074 64.7418 46.0128C64.7418 46.8139 64.5735 47.5192 64.2369 48.1286C63.9045 48.7337 63.4016 49.2045 62.7283 49.5412C62.0593 49.8778 61.2177 50.0462 60.2035 50.0462H56.6687V48.3459H60.0245C60.6637 48.3459 61.1836 48.2543 61.5842 48.071C61.989 47.8878 62.2852 47.6214 62.4727 47.272C62.6602 46.9226 62.7539 46.5028 62.7539 46.0128C62.7539 45.5185 62.658 45.0902 62.4663 44.728C62.2788 44.3658 61.9826 44.0888 61.5778 43.897C61.1772 43.701 60.6509 43.603 59.9989 43.603H57.5188V55H55.5437ZM62.006 49.0938L65.2404 55H62.9904L59.82 49.0938H62.006ZM76.6726 55V41.9091H81.3388C82.3572 41.9091 83.201 42.0945 83.87 42.4652C84.5391 42.8359 85.0398 43.343 85.3722 43.9865C85.7045 44.6257 85.8707 45.3459 85.8707 46.147C85.8707 46.9524 85.7024 47.6768 85.3658 48.3203C85.0334 48.9595 84.5305 49.4666 83.8572 49.8416C83.1882 50.2124 82.3466 50.3977 81.3324 50.3977H78.1236V48.723H81.1534C81.7969 48.723 82.3189 48.6122 82.7195 48.3906C83.12 48.1648 83.4141 47.858 83.6016 47.4702C83.7891 47.0824 83.8828 46.6413 83.8828 46.147C83.8828 45.6527 83.7891 45.2138 83.6016 44.8303C83.4141 44.4467 83.1179 44.1463 82.7131 43.929C82.3125 43.7116 81.7841 43.603 81.1278 43.603H78.6477V55H76.6726ZM88.1863 55V41.9091H92.8525C93.8667 41.9091 94.7083 42.0838 95.3773 42.4332C96.0506 42.7827 96.5534 43.2663 96.8858 43.8842C97.2182 44.4979 97.3844 45.2074 97.3844 46.0128C97.3844 46.8139 97.2161 47.5192 96.8794 48.1286C96.5471 48.7337 96.0442 49.2045 95.3709 49.5412C94.7019 49.8778 93.8603 50.0462 92.8461 50.0462H89.3113V48.3459H92.6671C93.3063 48.3459 93.8262 48.2543 94.2267 48.071C94.6316 47.8878 94.9277 47.6214 95.1152 47.272C95.3027 46.9226 95.3965 46.5028 95.3965 46.0128C95.3965 45.5185 95.3006 45.0902 95.1088 44.728C94.9213 44.3658 94.6252 44.0888 94.2203 43.897C93.8198 43.701 93.2935 43.603 92.6415 43.603H90.1614V55H88.1863ZM94.6486 49.0938L97.883 55H95.633L92.4625 49.0938H94.6486ZM111.159 48.4545C111.159 49.8523 110.904 51.054 110.392 52.0597C109.881 53.0611 109.18 53.8324 108.289 54.3736C107.403 54.9105 106.395 55.179 105.266 55.179C104.132 55.179 103.12 54.9105 102.23 54.3736C101.343 53.8324 100.644 53.0589 100.133 52.0533C99.6216 51.0476 99.3659 49.848 99.3659 48.4545C99.3659 47.0568 99.6216 45.8572 100.133 44.8558C100.644 43.8501 101.343 43.0788 102.23 42.5419C103.12 42.0007 104.132 41.7301 105.266 41.7301C106.395 41.7301 107.403 42.0007 108.289 42.5419C109.18 43.0788 109.881 43.8501 110.392 44.8558C110.904 45.8572 111.159 47.0568 111.159 48.4545ZM109.203 48.4545C109.203 47.3892 109.031 46.4922 108.686 45.7635C108.345 45.0305 107.876 44.4766 107.279 44.1016C106.687 43.7223 106.016 43.5327 105.266 43.5327C104.512 43.5327 103.838 43.7223 103.246 44.1016C102.654 44.4766 102.185 45.0305 101.84 45.7635C101.499 46.4922 101.328 47.3892 101.328 48.4545C101.328 49.5199 101.499 50.419 101.84 51.152C102.185 51.8807 102.654 52.4347 103.246 52.8139C103.838 53.1889 104.512 53.3764 105.266 53.3764C106.016 53.3764 106.687 53.1889 107.279 52.8139C107.876 52.4347 108.345 51.8807 108.686 51.152C109.031 50.419 109.203 49.5199 109.203 48.4545ZM113.622 55V41.9091H121.74V43.6094H115.597V47.598H121.158V49.2919H115.597V55H113.622ZM126.144 41.9091V55H124.169V41.9091H126.144ZM129.02 55V41.9091H130.995V53.2997H136.927V55H129.02ZM139.18 55V41.9091H147.388V43.6094H141.156V47.598H146.96V49.2919H141.156V53.2997H147.464V55H139.18ZM8.57812 67.348C8.50994 66.7429 8.22869 66.2741 7.73438 65.9418C7.24006 65.6051 6.6179 65.4368 5.8679 65.4368C5.33097 65.4368 4.86648 65.522 4.47443 65.6925C4.08239 65.8587 3.7777 66.0888 3.56037 66.3828C3.3473 66.6726 3.24077 67.0028 3.24077 67.3736C3.24077 67.6847 3.31321 67.9531 3.4581 68.179C3.60724 68.4048 3.80114 68.5945 4.03977 68.7479C4.28267 68.897 4.54261 69.0227 4.8196 69.125C5.09659 69.223 5.36293 69.304 5.61861 69.3679L6.89702 69.7003C7.31463 69.8026 7.7429 69.9411 8.18182 70.1158C8.62074 70.2905 9.0277 70.5206 9.4027 70.8061C9.7777 71.0916 10.0803 71.4453 10.3104 71.8672C10.5447 72.2891 10.6619 72.794 10.6619 73.3821C10.6619 74.1236 10.4702 74.782 10.0866 75.3572C9.70739 75.9325 9.15554 76.3864 8.43111 76.7188C7.71094 77.0511 6.83949 77.2173 5.81676 77.2173C4.83665 77.2173 3.98864 77.0618 3.27273 76.7507C2.55682 76.4396 1.99645 75.9986 1.59162 75.4276C1.18679 74.8523 0.963068 74.1705 0.920455 73.3821H2.90199C2.94034 73.8551 3.09375 74.2493 3.36222 74.5646C3.63494 74.8757 3.98224 75.108 4.40412 75.2614C4.83026 75.4105 5.29688 75.4851 5.80398 75.4851C6.36222 75.4851 6.85867 75.3977 7.29332 75.223C7.73224 75.044 8.07742 74.7969 8.32884 74.4815C8.58026 74.1619 8.70597 73.7891 8.70597 73.3629C8.70597 72.9751 8.59517 72.6577 8.37358 72.4105C8.15625 72.1634 7.86009 71.9588 7.48509 71.7969C7.11435 71.6349 6.6946 71.4922 6.22585 71.3686L4.67898 70.9467C3.63068 70.6612 2.79972 70.2415 2.18608 69.6875C1.5767 69.1335 1.27202 68.4006 1.27202 67.4886C1.27202 66.7344 1.47656 66.076 1.88565 65.5135C2.29474 64.951 2.84872 64.5142 3.54759 64.2031C4.24645 63.8878 5.0348 63.7301 5.91264 63.7301C6.79901 63.7301 7.58097 63.8857 8.25852 64.1967C8.94034 64.5078 9.47727 64.9361 9.86932 65.4815C10.2614 66.0227 10.4659 66.6449 10.483 67.348H8.57812ZM13.0222 77V63.9091H21.2296V65.6094H14.9973V69.598H20.8013V71.2919H14.9973V75.2997H21.3063V77H13.0222ZM23.2223 65.6094V63.9091H33.3537V65.6094H29.2692V77H27.3004V65.6094H23.2223ZM34.9469 65.6094V63.9091H45.0783V65.6094H40.9938V77H39.025V65.6094H34.9469ZM49.2923 63.9091V77H47.3171V63.9091H49.2923ZM62.7347 63.9091V77H60.9194L54.2653 67.3991H54.1438V77H52.1687V63.9091H53.9968L60.6573 73.5227H60.7788V63.9091H62.7347ZM74.4753 68.0447C74.3517 67.657 74.1855 67.3097 73.9767 67.0028C73.7722 66.6918 73.5272 66.4276 73.2417 66.2102C72.9561 65.9886 72.6301 65.8203 72.2637 65.7053C71.9015 65.5902 71.503 65.5327 71.0684 65.5327C70.3311 65.5327 69.6664 65.7223 69.074 66.1016C68.4817 66.4808 68.013 67.0369 67.6678 67.7699C67.3269 68.4986 67.1564 69.3913 67.1564 70.4482C67.1564 71.5092 67.329 72.4062 67.6742 73.1392C68.0194 73.8722 68.4924 74.4283 69.0932 74.8075C69.6941 75.1868 70.378 75.3764 71.1451 75.3764C71.8567 75.3764 72.4767 75.2315 73.0051 74.9418C73.5378 74.652 73.949 74.2429 74.2388 73.7145C74.5328 73.1818 74.6799 72.5554 74.6799 71.8352L75.1912 71.9311H71.4455V70.3011H76.5911V71.7905C76.5911 72.8899 76.3567 73.8445 75.888 74.6541C75.4235 75.4595 74.78 76.0817 73.9576 76.5206C73.1394 76.9595 72.2019 77.179 71.1451 77.179C69.9604 77.179 68.9206 76.9062 68.0257 76.3608C67.1351 75.8153 66.4405 75.0419 65.9419 74.0405C65.4434 73.0348 65.1941 71.8416 65.1941 70.4609C65.1941 69.4169 65.339 68.4794 65.6287 67.6484C65.9185 66.8175 66.3255 66.1122 66.8496 65.5327C67.378 64.9489 67.998 64.5036 68.7097 64.1967C69.4256 63.8857 70.2076 63.7301 71.0556 63.7301C71.763 63.7301 72.4213 63.8345 73.0307 64.0433C73.6444 64.2521 74.1898 64.5483 74.6671 64.9318C75.1486 65.3153 75.5471 65.7713 75.8624 66.2997C76.1777 66.8239 76.3908 67.4055 76.5016 68.0447H74.4753Z" fill="black"/>
<path d="M47.3559 31C44.9576 30.2551 42.7856 28.8768 41.0513 26.9994C41.6093 26.3108 41.9572 25.4647 42.0503 24.5693C42.1435 23.6739 41.9778 22.77 41.5743 21.9731C41.1709 21.1763 40.5481 20.5228 39.7857 20.0963C39.0232 19.6698 38.1558 19.4896 37.2944 19.5789C37.0981 18.5788 36.9995 17.5607 37 16.54C37 14.9636 37.232 13.443 37.6641 12.0144H37.725C38.4643 12.0146 39.1915 11.8188 39.8379 11.4455C40.4843 11.0721 41.0285 10.5335 41.4193 9.88056C41.81 9.22759 42.0343 8.48178 42.071 7.71356C42.1077 6.94535 41.9557 6.18007 41.6291 5.48999C43.329 3.84329 45.3847 2.64627 47.6227 2C47.9869 2.74401 48.5419 3.36869 49.2262 3.80492C49.9105 4.24115 50.6974 4.47193 51.5 4.47173C52.3025 4.47193 53.0895 4.24115 53.7738 3.80492C54.4581 3.36869 55.0131 2.74401 55.3773 2C57.6153 2.64627 59.671 3.84329 61.3709 5.48999C61.042 6.1849 60.89 6.95601 60.9295 7.72952C60.969 8.50302 61.1987 9.25303 61.5966 9.90774C61.9945 10.5625 62.5473 11.1 63.202 11.4688C63.8567 11.8377 64.5914 12.0255 65.3359 12.0144C65.7774 13.479 66.0013 15.0051 66 16.54C66 17.5809 65.8985 18.5976 65.7056 19.5789C64.8442 19.4896 63.9768 19.6698 63.2143 20.0963C62.4519 20.5228 61.8291 21.1763 61.4257 21.9731C61.0222 22.77 60.8565 23.6739 60.9497 24.5693C61.0428 25.4647 61.3907 26.3108 61.9487 26.9994C60.2144 28.8768 58.0424 30.2551 55.6441 31C55.3625 30.0868 54.8094 29.2902 54.0646 28.7251C53.3199 28.1599 52.4218 27.8554 51.5 27.8554C50.5782 27.8554 49.6801 28.1599 48.9354 28.7251C48.1906 29.2902 47.6375 30.0868 47.3559 31Z" stroke="#111111" stroke-width="2.91667" stroke-linejoin="round"/>
<path d="M51.5 21.8198C52.1664 21.8198 52.8264 21.6833 53.4421 21.4179C54.0578 21.1526 54.6173 20.7637 55.0886 20.2734C55.5598 19.7831 55.9336 19.2011 56.1887 18.5605C56.4437 17.9199 56.575 17.2334 56.575 16.54C56.575 15.8466 56.4437 15.1601 56.1887 14.5195C55.9336 13.8789 55.5598 13.2968 55.0886 12.8066C54.6173 12.3163 54.0578 11.9274 53.4421 11.662C52.8264 11.3967 52.1664 11.2601 51.5 11.2601C50.154 11.2601 48.8632 11.8164 47.9114 12.8066C46.9597 13.7967 46.425 15.1397 46.425 16.54C46.425 17.9403 46.9597 19.2832 47.9114 20.2734C48.8632 21.2636 50.154 21.8198 51.5 21.8198V21.8198Z" stroke="#111111" stroke-width="2.91667" stroke-linejoin="round"/>
</svg>
