<svg width="35" height="34" viewBox="0 0 35 34" fill="none" xmlns="http://www.w3.org/2000/svg">
<g clip-path="url(#clip0_90_238)">
<path d="M17.9694 32.3755C18.5643 32.3618 19.1353 32.1381 19.5812 31.7441C20.0271 31.35 20.3193 30.8109 20.406 30.2222H15.4384C15.5276 30.8269 15.8334 31.3786 16.299 31.7747C16.7646 32.1708 17.3582 32.3843 17.9694 32.3755V32.3755Z" fill="white"/>
<path d="M31.673 26.2839C30.7622 25.472 29.9649 24.5412 29.3024 23.5167C28.5792 22.1024 28.1458 20.5579 28.0275 18.9739V14.3083C28.0236 13.7416 27.9731 13.1762 27.8764 12.6178C27.133 12.4692 26.4186 12.2013 25.7609 11.8244C26.0116 12.6318 26.1389 13.4724 26.1386 14.3178V18.9833C26.2544 20.9157 26.7859 22.8003 27.6969 24.5083C28.349 25.5416 29.1226 26.4928 30.0013 27.3417H5.81462C6.69332 26.4928 7.46699 25.5416 8.11902 24.5083C9.03002 22.8003 9.56156 20.9157 9.67732 18.9833V14.3083C9.67235 13.2153 9.88302 12.1321 10.2973 11.1206C10.7115 10.1091 11.3212 9.18926 12.0915 8.41374C12.8617 7.63822 13.7773 7.02226 14.786 6.60112C15.7946 6.17997 16.8764 5.96192 17.9694 5.95945C19.569 5.96073 21.1327 6.4338 22.4648 7.31945C22.318 6.78016 22.2355 6.22536 22.2193 5.66667V5.07167C21.2332 4.58656 20.1738 4.26747 19.0838 4.12722V2.93722C19.0838 2.60283 18.9509 2.28213 18.7145 2.04568C18.4781 1.80923 18.1574 1.67639 17.823 1.67639C17.4886 1.67639 17.1679 1.80923 16.9314 2.04568C16.695 2.28213 16.5622 2.60283 16.5622 2.93722V4.17445C14.1215 4.51875 11.8878 5.73443 10.2735 7.59705C8.6591 9.45967 7.7731 11.8435 7.77902 14.3083V18.9739C7.66074 20.5579 7.22727 22.1024 6.50405 23.5167C5.85323 24.5389 5.06871 25.4695 4.17132 26.2839C4.07058 26.3724 3.98984 26.4813 3.93448 26.6035C3.87911 26.7256 3.85039 26.8581 3.85022 26.9922V28.2767C3.85022 28.5272 3.94972 28.7674 4.12684 28.9445C4.30395 29.1216 4.54417 29.2211 4.79464 29.2211H31.0496C31.3001 29.2211 31.5403 29.1216 31.7174 28.9445C31.8946 28.7674 31.9941 28.5272 31.9941 28.2767V26.9922C31.9939 26.8581 31.9652 26.7256 31.9098 26.6035C31.8544 26.4813 31.7737 26.3724 31.673 26.2839V26.2839Z" fill="white"/>
<path d="M29.3024 10.3889C31.9104 10.3889 34.0246 8.27469 34.0246 5.66668C34.0246 3.05867 31.9104 0.944458 29.3024 0.944458C26.6945 0.944458 24.5803 3.05867 24.5803 5.66668C24.5803 8.27469 26.6945 10.3889 29.3024 10.3889Z" fill="white"/>
</g>
<defs>
<clipPath id="clip0_90_238">
<rect width="33.9993" height="34" fill="white" transform="translate(0.969727)"/>
</clipPath>
</defs>
</svg>
